<?xml version="1.0" encoding="UTF-8"?>
<svg width="24px" height="24px" viewBox="0 0 24 24" version="1.1" xmlns="http://www.w3.org/2000/svg">
    <g stroke="none" stroke-width="1" fill="none" fill-rule="evenodd">
        <circle fill="#2196F3" cx="12" cy="12" r="12"/>
        <path d="M12,2 C17.5228475,2 22,6.4771525 22,12 C22,17.5228475 17.5228475,22 12,22 C6.4771525,22 2,17.5228475 2,12 C2,6.4771525 6.4771525,2 12,2 Z M12,4 C7.581722,4 4,7.581722 4,12 C4,16.418278 7.581722,20 12,20 C16.418278,20 20,16.418278 20,12 C20,7.581722 16.418278,4 12,4 Z" fill="#FFFFFF" fill-rule="nonzero"/>
        <path d="M12,4 C16.418278,4 20,7.581722 20,12 C20,16.418278 16.418278,20 12,20 L12,4 Z" fill="#FFFFFF" fill-opacity="0.4"/>
        <path d="M12,2 L12,4 C7.581722,4 4,7.581722 4,12 L2,12 C2,6.4771525 6.4771525,2 12,2 Z" fill="#FFFFFF" fill-opacity="0.2"/>
    </g>
</svg>
